<?xml version="1.0" encoding="iso-8859-1"?>
<!-- Generator: Adobe Illustrator 27.8.1, SVG Export Plug-In . SVG Version: 6.00 Build 0)  -->
<svg version="1.1" id="Layer_1" xmlns="http://www.w3.org/2000/svg" xmlns:xlink="http://www.w3.org/1999/xlink" x="0px" y="0px"
	 viewBox="0 0 770.775 213.211" style="enable-background:new 0 0 770.775 213.211;" xml:space="preserve">
<path style="fill:#6868D1;" d="M32.372,25.231c2.085-1.426,3.551-2.402,4.989-3.416c8.174-5.761,16.503-11.241,25.877-14.935
	c10.715-4.223,21.801-6.726,33.328-6.756c38.185-0.101,76.37-0.096,114.554-0.064c2.465,0.002,5.013,0.284,7.377,0.949
	c4.548,1.278,6.962,4.83,7.234,9.923c0.248,4.63-1.966,8.617-6.288,10.174c-2.624,0.945-5.544,1.477-8.335,1.492
	c-23.196,0.128-46.393,0.094-69.589,0.105c-11.063,0.005-22.129-0.161-33.188,0.037c-21.126,0.379-40.236,6.695-56.513,20.406
	C35.73,56.697,26.799,74.283,23.894,94.963c-0.691,4.922-0.871,9.944-0.918,14.923c-0.178,18.781-0.245,37.564-0.269,56.346
	c-0.013,9.984,0.181,19.968,0.206,29.952c0.006,2.249-0.137,4.527-0.501,6.744c-1.154,7.013-7.278,11.035-14.191,9.449
	c-3.923-0.9-7.03-4.178-7.61-8.493c-0.41-3.05-0.542-6.158-0.545-9.24C0.015,136.148-0.003,77.653,0,19.158
	c0-1.892,0.201-3.797,0.467-5.674C1.534,5.963,6.911,0.757,14.004,0.085c9.351-0.886,15.348,5.279,16.91,11.242
	c0.683,2.606,0.68,5.394,0.96,8.103C32.043,21.063,32.157,22.701,32.372,25.231z"/>
<path style="fill:#6868D1;" d="M153.987,47.247c19.626,0,39.252-0.005,58.878,0.013c1.18,0.001,2.386,0.064,3.535,0.307
	c7.644,1.62,11.395,8.959,8.285,16.155c-1.702,3.936-5.028,5.549-9.013,6.004c-2.119,0.242-4.276,0.204-6.415,0.203
	c-30.927-0.016-61.854-0.117-92.78-0.017c-6.155,0.02-12.44,0.138-18.435,1.346c-16.611,3.348-28.498,17.501-28.982,34.349
	c-0.557,19.377,11.944,33.323,28.339,36.166c1.628,0.282,3.31,0.355,4.967,0.357c19.27,0.033,38.54,0.003,57.81,0.076
	c3.076,0.012,6.208,0.163,9.214,0.756c5.849,1.154,8.933,5.516,8.697,11.693c-0.21,5.494-3.497,9.169-9.183,10.103
	c-1.749,0.288-3.544,0.4-5.319,0.406c-18.794,0.057-37.588,0.012-56.38,0.157c-4.013,0.031-8.13,0.259-12.011,1.184
	c-13.757,3.281-21.889,12.247-24.875,25.924c-0.706,3.234-0.836,6.59-1.34,9.873c-0.214,1.394-0.544,2.818-1.106,4.104
	c-1.975,4.517-5.71,6.482-11.345,6.138c-4.579-0.28-8.071-2.981-9.302-7.504c-0.524-1.926-0.801-3.981-0.803-5.978
	c-0.028-32.812-0.155-65.625,0.08-98.436c0.176-24.643,15.221-44.449,38.111-51c7.29-2.087,14.796-2.244,22.273-2.31
	c15.699-0.138,31.401-0.042,47.101-0.042C153.987,47.266,153.987,47.257,153.987,47.247z"/>
<path style="fill:#6868D1;" d="M136.495,189.862c9.871-0.001,19.747,0.196,29.611-0.054c11.066-0.281,20.601-4.354,28.079-12.698
	c16.028-17.882,10.218-49.972-18.115-57.948c-4.053-1.141-8.438-1.491-12.676-1.528c-18.195-0.161-36.392-0.054-54.588-0.093
	c-1.886-0.004-3.81-0.152-5.648-0.548c-6.389-1.377-9.393-5.328-9.048-11.654c0.305-5.599,4.391-9.661,10.407-10.311
	c0.943-0.102,1.9-0.115,2.85-0.113c17.481,0.041,34.964-0.07,52.442,0.212c7.939,0.128,15.989,0.294,23.706,2.406
	c21.689,5.937,35.44,20.213,40.359,41.858c5.356,23.567-1.278,44-19.781,59.999c-8.614,7.448-18.979,11.343-30.242,12.259
	c-11.008,0.895-22.068,1.392-33.112,1.534c-11.385,0.147-22.778-0.344-34.168-0.559c-0.475-0.009-0.95-0.043-1.425-0.077
	c-7.022-0.493-11.123-4.725-11.046-11.396c0.075-6.548,4.405-10.921,11.355-11.186c4.87-0.186,9.75-0.09,14.626-0.1
	C125.554,189.854,131.025,189.863,136.495,189.862z"/>
<g>
	<path d="M292.578,29.502v52.566h66.523l-1.42,5.85h-70.785V29.502H292.578z"/>
	<path d="M393.449,29.502h40.699c2.172,0,4.232,0.418,6.184,1.253c1.949,0.836,3.637,1.993,5.057,3.468
		c1.42,1.477,2.549,3.19,3.385,5.14c0.836,1.951,1.254,4.012,1.254,6.185v26.325c0,2.229-0.418,4.318-1.254,6.268
		c-0.836,1.951-1.965,3.65-3.385,5.098c-1.42,1.45-3.107,2.591-5.057,3.427c-1.951,0.835-4.012,1.253-6.184,1.253h-40.699
		c-2.174,0-4.234-0.418-6.186-1.253c-1.95-0.836-3.634-1.977-5.055-3.427c-1.421-1.448-2.549-3.147-3.385-5.098
		c-0.835-1.95-1.253-4.039-1.253-6.268V45.548c0-2.173,0.418-4.233,1.253-6.185c0.836-1.949,1.964-3.663,3.385-5.14
		c1.421-1.476,3.105-2.632,5.055-3.468C389.215,29.92,391.276,29.502,393.449,29.502z M383.337,71.872
		c0,1.394,0.264,2.716,0.794,3.97c0.529,1.253,1.253,2.34,2.173,3.259c0.919,0.919,1.991,1.659,3.218,2.215
		c1.225,0.558,2.533,0.835,3.928,0.835h40.699c1.393,0,2.717-0.278,3.969-0.835c1.254-0.556,2.34-1.295,3.26-2.215
		c0.92-0.919,1.643-2.006,2.174-3.259c0.527-1.253,0.793-2.576,0.793-3.97V45.548c0-1.392-0.266-2.716-0.793-3.97
		c-0.531-1.253-1.254-2.34-2.174-3.259s-2.006-1.643-3.26-2.173c-1.252-0.529-2.576-0.794-3.969-0.794h-40.699
		c-1.395,0-2.703,0.265-3.928,0.794c-1.227,0.53-2.299,1.253-3.218,2.173c-0.919,0.919-1.644,2.006-2.173,3.259
		c-0.53,1.253-0.794,2.578-0.794,3.97V71.872z"/>
	<path d="M474.764,71.872V45.548c0-2.173,0.418-4.233,1.254-6.185c0.836-1.949,1.964-3.663,3.385-5.14
		c1.421-1.476,3.105-2.632,5.056-3.468c1.95-0.835,4.012-1.253,6.185-1.253h48.973l-1.504,5.85h-47.469
		c-1.394,0-2.716,0.265-3.97,0.794c-1.253,0.53-2.34,1.253-3.259,2.173c-0.92,0.919-1.645,2.006-2.173,3.259
		c-0.53,1.253-0.794,2.578-0.794,3.97v26.325c0,1.394,0.264,2.716,0.794,3.97c0.528,1.253,1.253,2.354,2.173,3.301
		c0.919,0.948,2.006,1.686,3.259,2.214c1.254,0.53,2.576,0.794,3.97,0.794h40.616c1.448,0,2.785-0.264,4.011-0.794
		c1.226-0.529,2.312-1.267,3.26-2.214c0.946-0.947,1.685-2.048,2.215-3.301c0.528-1.253,0.794-2.576,0.794-3.97V61.593h-36.855
		l1.421-5.766h41.117v16.045c0,2.229-0.418,4.318-1.254,6.268c-0.835,1.951-1.964,3.65-3.385,5.098
		c-1.42,1.45-3.092,2.591-5.014,3.427c-1.922,0.835-3.97,1.253-6.143,1.253h-40.783c-2.173,0-4.234-0.418-6.185-1.253
		c-1.95-0.836-3.635-1.977-5.056-3.427c-1.421-1.448-2.549-3.147-3.385-5.098C475.182,76.191,474.764,74.101,474.764,71.872z"/>
	<path d="M587.836,29.502h40.699c2.173,0,4.233,0.418,6.185,1.253c1.949,0.836,3.636,1.993,5.056,3.468
		c1.421,1.477,2.55,3.19,3.385,5.14c0.836,1.951,1.254,4.012,1.254,6.185v26.325c0,2.229-0.418,4.318-1.254,6.268
		c-0.835,1.951-1.964,3.65-3.385,5.098c-1.42,1.45-3.106,2.591-5.056,3.427c-1.951,0.835-4.012,1.253-6.185,1.253h-40.699
		c-2.173,0-4.234-0.418-6.185-1.253c-1.95-0.836-3.635-1.977-5.056-3.427c-1.421-1.448-2.549-3.147-3.385-5.098
		c-0.836-1.95-1.254-4.039-1.254-6.268V45.548c0-2.173,0.418-4.233,1.254-6.185c0.836-1.949,1.964-3.663,3.385-5.14
		c1.421-1.476,3.105-2.632,5.056-3.468C583.602,29.92,585.663,29.502,587.836,29.502z M577.724,71.872
		c0,1.394,0.264,2.716,0.794,3.97c0.529,1.253,1.254,2.34,2.173,3.259c0.92,0.919,1.991,1.659,3.218,2.215
		c1.225,0.558,2.534,0.835,3.928,0.835h40.699c1.393,0,2.717-0.278,3.97-0.835c1.254-0.556,2.34-1.295,3.26-2.215
		c0.919-0.919,1.643-2.006,2.173-3.259c0.528-1.253,0.794-2.576,0.794-3.97V45.548c0-1.392-0.266-2.716-0.794-3.97
		c-0.53-1.253-1.254-2.34-2.173-3.259c-0.92-0.919-2.006-1.643-3.26-2.173c-1.253-0.529-2.577-0.794-3.97-0.794h-40.699
		c-1.394,0-2.703,0.265-3.928,0.794c-1.227,0.53-2.298,1.253-3.218,2.173c-0.919,0.919-1.644,2.006-2.173,3.259
		c-0.53,1.253-0.794,2.578-0.794,3.97V71.872z"/>
	<path d="M343.473,129.788c2.173,0,4.233,0.417,6.184,1.253c1.95,0.836,3.635,1.979,5.056,3.427c1.42,1.449,2.549,3.148,3.385,5.098
		c0.835,1.951,1.253,4.04,1.253,6.268v26.325c0,2.229-0.418,4.318-1.253,6.268c-0.836,1.951-1.964,3.65-3.385,5.099
		c-1.421,1.449-3.106,2.591-5.056,3.426c-1.951,0.836-4.011,1.254-6.184,1.254h-56.578v-58.416H343.473z M292.662,182.437h50.812
		c1.392,0,2.716-0.264,3.969-0.794c1.254-0.528,2.34-1.267,3.259-2.215c0.919-0.946,1.643-2.047,2.173-3.301
		c0.529-1.254,0.794-2.576,0.794-3.97v-26.325c0-1.392-0.265-2.716-0.794-3.97c-0.53-1.253-1.253-2.34-2.173-3.259
		c-0.919-0.919-2.005-1.643-3.259-2.173c-1.253-0.529-2.578-0.794-3.969-0.794h-50.812V182.437z"/>
	<path d="M384.507,129.788h72.206l-1.421,5.85h-70.785V129.788z M441.92,156.112l-1.421,5.767h-50.31v20.476h66.522l-1.421,5.85
		h-70.785v-32.092H441.92z"/>
	<path d="M475.432,145.833c0-2.173,0.418-4.233,1.254-6.184s1.964-3.663,3.385-5.14c1.421-1.476,3.092-2.633,5.015-3.469
		c1.922-0.836,3.97-1.253,6.143-1.253H540.2l-1.421,5.85h-47.552c-1.394,0-2.703,0.265-3.929,0.794
		c-1.226,0.53-2.298,1.254-3.217,2.173c-0.92,0.919-1.645,2.006-2.173,3.259c-0.53,1.254-0.794,2.578-0.794,3.97
		c0,1.394,0.264,2.717,0.794,3.97c0.528,1.254,1.253,2.354,2.173,3.302c0.919,0.947,1.991,1.686,3.217,2.214
		c1.226,0.53,2.535,0.794,3.929,0.794h40.782c2.173,0,4.233,0.418,6.185,1.254c1.949,0.836,3.636,1.979,5.056,3.427
		c1.421,1.449,2.55,3.148,3.385,5.098c0.836,1.951,1.254,4.04,1.254,6.268c0,2.229-0.418,4.318-1.254,6.268
		c-0.835,1.951-1.964,3.65-3.385,5.099c-1.42,1.449-3.106,2.591-5.056,3.426c-1.951,0.836-4.012,1.254-6.185,1.254h-48.889
		l1.42-5.85h47.469c1.393,0,2.702-0.265,3.928-0.794s2.299-1.254,3.218-2.173c0.919-0.92,1.643-2.006,2.173-3.26
		c0.529-1.254,0.794-2.576,0.794-3.97c0-1.448-0.265-2.785-0.794-4.012c-0.53-1.225-1.254-2.311-2.173-3.259
		c-0.919-0.946-1.992-1.685-3.218-2.215c-1.226-0.528-2.535-0.794-3.928-0.794h-40.782c-2.173,0-4.221-0.418-6.143-1.253
		c-1.923-0.836-3.594-1.978-5.015-3.427c-1.421-1.448-2.549-3.147-3.385-5.098S475.432,148.062,475.432,145.833z"/>
	<path d="M572.876,129.788h5.767v58.416h-5.767V129.788z"/>
	<path d="M604.049,172.158v-26.325c0-2.173,0.418-4.233,1.254-6.184s1.964-3.663,3.385-5.14c1.421-1.476,3.105-2.633,5.056-3.469
		s4.012-1.253,6.185-1.253h48.973l-1.504,5.85h-47.469c-1.394,0-2.716,0.265-3.97,0.794c-1.253,0.53-2.34,1.254-3.259,2.173
		c-0.92,0.919-1.645,2.006-2.173,3.259c-0.53,1.254-0.794,2.578-0.794,3.97v26.325c0,1.394,0.264,2.716,0.794,3.97
		c0.528,1.254,1.253,2.354,2.173,3.301c0.919,0.948,2.006,1.687,3.259,2.215c1.254,0.53,2.576,0.794,3.97,0.794h40.616
		c1.448,0,2.785-0.264,4.011-0.794c1.226-0.528,2.312-1.267,3.26-2.215c0.946-0.946,1.685-2.047,2.215-3.301
		c0.528-1.254,0.794-2.576,0.794-3.97v-10.279h-36.855l1.421-5.767h41.117v16.046c0,2.229-0.418,4.318-1.254,6.268
		c-0.835,1.951-1.964,3.65-3.385,5.099c-1.42,1.449-3.092,2.591-5.014,3.426c-1.922,0.836-3.97,1.254-6.143,1.254h-40.783
		c-2.173,0-4.234-0.418-6.185-1.254c-1.95-0.835-3.635-1.977-5.056-3.426c-1.421-1.448-2.549-3.147-3.385-5.099
		C604.467,176.476,604.049,174.388,604.049,172.158z"/>
	<path d="M704.084,129.788l60.924,50.895v-50.895h5.767v58.416h-5.767l-60.924-50.896v50.896h-5.767v-58.416H704.084z"/>
</g>
</svg>
